%
M48
M72
T01C0.0394
T02C0.1181
T03C0.1378
%
T01
X4117Y6948
X4117Y7948
X4117Y8948
X4117Y9948
X3889Y12948
X4889Y12948
X5889Y12948
X6889Y12948
X2889Y12948
X1889Y12948
X14034Y20259
X15034Y20259
X16034Y20259
X17034Y20259
X23211Y12999
X23211Y11999
X23211Y10999
X23211Y9999
T02
X6873Y2936
X9629Y5692
X21440Y5692
X24196Y2936
X21440Y17503
X24196Y20259
X9629Y17503
X6873Y20259
T03
X28723Y14058
X28723Y8940
M30
