G75*
G70*
%OFA0B0*%
%FSLAX24Y24*%
%IPPOS*%
%LPD*%
%AMOC8*
5,1,8,0,0,1.08239X$1,22.5*
%
%ADD10C,0.0000*%
%ADD11C,0.0500*%
%ADD12C,0.0160*%
%ADD13C,0.0060*%
%ADD14C,0.0080*%
%ADD15C,0.0040*%
%ADD16C,0.0100*%
D10*
X005298Y000180D02*
X025377Y000180D01*
X023605Y002936D02*
X023607Y002984D01*
X023613Y003032D01*
X023623Y003079D01*
X023636Y003125D01*
X023654Y003170D01*
X023674Y003214D01*
X023699Y003256D01*
X023727Y003295D01*
X023757Y003332D01*
X023791Y003366D01*
X023828Y003398D01*
X023866Y003427D01*
X023907Y003452D01*
X023950Y003474D01*
X023995Y003492D01*
X024041Y003506D01*
X024088Y003517D01*
X024136Y003524D01*
X024184Y003527D01*
X024232Y003526D01*
X024280Y003521D01*
X024328Y003512D01*
X024374Y003500D01*
X024419Y003483D01*
X024463Y003463D01*
X024505Y003440D01*
X024545Y003413D01*
X024583Y003383D01*
X024618Y003350D01*
X024650Y003314D01*
X024680Y003276D01*
X024706Y003235D01*
X024728Y003192D01*
X024748Y003148D01*
X024763Y003103D01*
X024775Y003056D01*
X024783Y003008D01*
X024787Y002960D01*
X024787Y002912D01*
X024783Y002864D01*
X024775Y002816D01*
X024763Y002769D01*
X024748Y002724D01*
X024728Y002680D01*
X024706Y002637D01*
X024680Y002596D01*
X024650Y002558D01*
X024618Y002522D01*
X024583Y002489D01*
X024545Y002459D01*
X024505Y002432D01*
X024463Y002409D01*
X024419Y002389D01*
X024374Y002372D01*
X024328Y002360D01*
X024280Y002351D01*
X024232Y002346D01*
X024184Y002345D01*
X024136Y002348D01*
X024088Y002355D01*
X024041Y002366D01*
X023995Y002380D01*
X023950Y002398D01*
X023907Y002420D01*
X023866Y002445D01*
X023828Y002474D01*
X023791Y002506D01*
X023757Y002540D01*
X023727Y002577D01*
X023699Y002616D01*
X023674Y002658D01*
X023654Y002702D01*
X023636Y002747D01*
X023623Y002793D01*
X023613Y002840D01*
X023607Y002888D01*
X023605Y002936D01*
X025377Y000180D02*
X025621Y000186D01*
X025863Y000203D01*
X026105Y000232D01*
X026346Y000272D01*
X026584Y000324D01*
X026819Y000387D01*
X027051Y000461D01*
X027279Y000547D01*
X027503Y000643D01*
X027722Y000749D01*
X027936Y000866D01*
X028144Y000992D01*
X028346Y001129D01*
X028541Y001275D01*
X028729Y001430D01*
X028909Y001594D01*
X029081Y001766D01*
X029245Y001946D01*
X029400Y002134D01*
X029546Y002329D01*
X029683Y002531D01*
X029809Y002739D01*
X029926Y002953D01*
X030032Y003172D01*
X030128Y003396D01*
X030214Y003624D01*
X030288Y003856D01*
X030351Y004091D01*
X030403Y004329D01*
X030443Y004570D01*
X030472Y004812D01*
X030489Y005054D01*
X030495Y005298D01*
X030495Y017897D01*
X028034Y014058D02*
X028036Y014110D01*
X028042Y014162D01*
X028052Y014213D01*
X028065Y014263D01*
X028083Y014313D01*
X028104Y014360D01*
X028128Y014406D01*
X028157Y014450D01*
X028188Y014492D01*
X028222Y014531D01*
X028259Y014568D01*
X028299Y014601D01*
X028342Y014632D01*
X028386Y014659D01*
X028432Y014683D01*
X028481Y014703D01*
X028530Y014719D01*
X028581Y014732D01*
X028632Y014741D01*
X028684Y014746D01*
X028736Y014747D01*
X028788Y014744D01*
X028840Y014737D01*
X028891Y014726D01*
X028941Y014712D01*
X028990Y014693D01*
X029037Y014671D01*
X029082Y014646D01*
X029126Y014617D01*
X029167Y014585D01*
X029206Y014550D01*
X029241Y014512D01*
X029274Y014471D01*
X029304Y014429D01*
X029330Y014384D01*
X029353Y014337D01*
X029372Y014288D01*
X029388Y014238D01*
X029400Y014188D01*
X029408Y014136D01*
X029412Y014084D01*
X029412Y014032D01*
X029408Y013980D01*
X029400Y013928D01*
X029388Y013878D01*
X029372Y013828D01*
X029353Y013779D01*
X029330Y013732D01*
X029304Y013687D01*
X029274Y013645D01*
X029241Y013604D01*
X029206Y013566D01*
X029167Y013531D01*
X029126Y013499D01*
X029082Y013470D01*
X029037Y013445D01*
X028990Y013423D01*
X028941Y013404D01*
X028891Y013390D01*
X028840Y013379D01*
X028788Y013372D01*
X028736Y013369D01*
X028684Y013370D01*
X028632Y013375D01*
X028581Y013384D01*
X028530Y013397D01*
X028481Y013413D01*
X028432Y013433D01*
X028386Y013457D01*
X028342Y013484D01*
X028299Y013515D01*
X028259Y013548D01*
X028222Y013585D01*
X028188Y013624D01*
X028157Y013666D01*
X028128Y013710D01*
X028104Y013756D01*
X028083Y013803D01*
X028065Y013853D01*
X028052Y013903D01*
X028042Y013954D01*
X028036Y014006D01*
X028034Y014058D01*
X030495Y017897D02*
X030489Y018141D01*
X030472Y018383D01*
X030443Y018625D01*
X030403Y018866D01*
X030351Y019104D01*
X030288Y019339D01*
X030214Y019571D01*
X030128Y019799D01*
X030032Y020023D01*
X029926Y020242D01*
X029809Y020456D01*
X029683Y020664D01*
X029546Y020866D01*
X029400Y021061D01*
X029245Y021249D01*
X029081Y021429D01*
X028909Y021601D01*
X028729Y021765D01*
X028541Y021920D01*
X028346Y022066D01*
X028144Y022203D01*
X027936Y022329D01*
X027722Y022446D01*
X027503Y022552D01*
X027279Y022648D01*
X027051Y022734D01*
X026819Y022808D01*
X026584Y022871D01*
X026346Y022923D01*
X026105Y022963D01*
X025863Y022992D01*
X025621Y023009D01*
X025377Y023015D01*
X005298Y023015D01*
X006282Y020259D02*
X006284Y020307D01*
X006290Y020355D01*
X006300Y020402D01*
X006313Y020448D01*
X006331Y020493D01*
X006351Y020537D01*
X006376Y020579D01*
X006404Y020618D01*
X006434Y020655D01*
X006468Y020689D01*
X006505Y020721D01*
X006543Y020750D01*
X006584Y020775D01*
X006627Y020797D01*
X006672Y020815D01*
X006718Y020829D01*
X006765Y020840D01*
X006813Y020847D01*
X006861Y020850D01*
X006909Y020849D01*
X006957Y020844D01*
X007005Y020835D01*
X007051Y020823D01*
X007096Y020806D01*
X007140Y020786D01*
X007182Y020763D01*
X007222Y020736D01*
X007260Y020706D01*
X007295Y020673D01*
X007327Y020637D01*
X007357Y020599D01*
X007383Y020558D01*
X007405Y020515D01*
X007425Y020471D01*
X007440Y020426D01*
X007452Y020379D01*
X007460Y020331D01*
X007464Y020283D01*
X007464Y020235D01*
X007460Y020187D01*
X007452Y020139D01*
X007440Y020092D01*
X007425Y020047D01*
X007405Y020003D01*
X007383Y019960D01*
X007357Y019919D01*
X007327Y019881D01*
X007295Y019845D01*
X007260Y019812D01*
X007222Y019782D01*
X007182Y019755D01*
X007140Y019732D01*
X007096Y019712D01*
X007051Y019695D01*
X007005Y019683D01*
X006957Y019674D01*
X006909Y019669D01*
X006861Y019668D01*
X006813Y019671D01*
X006765Y019678D01*
X006718Y019689D01*
X006672Y019703D01*
X006627Y019721D01*
X006584Y019743D01*
X006543Y019768D01*
X006505Y019797D01*
X006468Y019829D01*
X006434Y019863D01*
X006404Y019900D01*
X006376Y019939D01*
X006351Y019981D01*
X006331Y020025D01*
X006313Y020070D01*
X006300Y020116D01*
X006290Y020163D01*
X006284Y020211D01*
X006282Y020259D01*
X005298Y023015D02*
X005054Y023009D01*
X004812Y022992D01*
X004570Y022963D01*
X004329Y022923D01*
X004091Y022871D01*
X003856Y022808D01*
X003624Y022734D01*
X003396Y022648D01*
X003172Y022552D01*
X002953Y022446D01*
X002739Y022329D01*
X002531Y022203D01*
X002329Y022066D01*
X002134Y021920D01*
X001946Y021765D01*
X001766Y021601D01*
X001594Y021429D01*
X001430Y021249D01*
X001275Y021061D01*
X001129Y020866D01*
X000992Y020664D01*
X000866Y020456D01*
X000749Y020242D01*
X000643Y020023D01*
X000547Y019799D01*
X000461Y019571D01*
X000387Y019339D01*
X000324Y019104D01*
X000272Y018866D01*
X000232Y018625D01*
X000203Y018383D01*
X000186Y018141D01*
X000180Y017897D01*
X000180Y005298D01*
X000186Y005054D01*
X000203Y004812D01*
X000232Y004570D01*
X000272Y004329D01*
X000324Y004091D01*
X000387Y003856D01*
X000461Y003624D01*
X000547Y003396D01*
X000643Y003172D01*
X000749Y002953D01*
X000866Y002739D01*
X000992Y002531D01*
X001129Y002329D01*
X001275Y002134D01*
X001430Y001946D01*
X001594Y001766D01*
X001766Y001594D01*
X001946Y001430D01*
X002134Y001275D01*
X002329Y001129D01*
X002531Y000992D01*
X002739Y000866D01*
X002953Y000749D01*
X003172Y000643D01*
X003396Y000547D01*
X003624Y000461D01*
X003856Y000387D01*
X004091Y000324D01*
X004329Y000272D01*
X004570Y000232D01*
X004812Y000203D01*
X005054Y000186D01*
X005298Y000180D01*
X006282Y002936D02*
X006284Y002984D01*
X006290Y003032D01*
X006300Y003079D01*
X006313Y003125D01*
X006331Y003170D01*
X006351Y003214D01*
X006376Y003256D01*
X006404Y003295D01*
X006434Y003332D01*
X006468Y003366D01*
X006505Y003398D01*
X006543Y003427D01*
X006584Y003452D01*
X006627Y003474D01*
X006672Y003492D01*
X006718Y003506D01*
X006765Y003517D01*
X006813Y003524D01*
X006861Y003527D01*
X006909Y003526D01*
X006957Y003521D01*
X007005Y003512D01*
X007051Y003500D01*
X007096Y003483D01*
X007140Y003463D01*
X007182Y003440D01*
X007222Y003413D01*
X007260Y003383D01*
X007295Y003350D01*
X007327Y003314D01*
X007357Y003276D01*
X007383Y003235D01*
X007405Y003192D01*
X007425Y003148D01*
X007440Y003103D01*
X007452Y003056D01*
X007460Y003008D01*
X007464Y002960D01*
X007464Y002912D01*
X007460Y002864D01*
X007452Y002816D01*
X007440Y002769D01*
X007425Y002724D01*
X007405Y002680D01*
X007383Y002637D01*
X007357Y002596D01*
X007327Y002558D01*
X007295Y002522D01*
X007260Y002489D01*
X007222Y002459D01*
X007182Y002432D01*
X007140Y002409D01*
X007096Y002389D01*
X007051Y002372D01*
X007005Y002360D01*
X006957Y002351D01*
X006909Y002346D01*
X006861Y002345D01*
X006813Y002348D01*
X006765Y002355D01*
X006718Y002366D01*
X006672Y002380D01*
X006627Y002398D01*
X006584Y002420D01*
X006543Y002445D01*
X006505Y002474D01*
X006468Y002506D01*
X006434Y002540D01*
X006404Y002577D01*
X006376Y002616D01*
X006351Y002658D01*
X006331Y002702D01*
X006313Y002747D01*
X006300Y002793D01*
X006290Y002840D01*
X006284Y002888D01*
X006282Y002936D01*
X009038Y005692D02*
X009040Y005740D01*
X009046Y005788D01*
X009056Y005835D01*
X009069Y005881D01*
X009087Y005926D01*
X009107Y005970D01*
X009132Y006012D01*
X009160Y006051D01*
X009190Y006088D01*
X009224Y006122D01*
X009261Y006154D01*
X009299Y006183D01*
X009340Y006208D01*
X009383Y006230D01*
X009428Y006248D01*
X009474Y006262D01*
X009521Y006273D01*
X009569Y006280D01*
X009617Y006283D01*
X009665Y006282D01*
X009713Y006277D01*
X009761Y006268D01*
X009807Y006256D01*
X009852Y006239D01*
X009896Y006219D01*
X009938Y006196D01*
X009978Y006169D01*
X010016Y006139D01*
X010051Y006106D01*
X010083Y006070D01*
X010113Y006032D01*
X010139Y005991D01*
X010161Y005948D01*
X010181Y005904D01*
X010196Y005859D01*
X010208Y005812D01*
X010216Y005764D01*
X010220Y005716D01*
X010220Y005668D01*
X010216Y005620D01*
X010208Y005572D01*
X010196Y005525D01*
X010181Y005480D01*
X010161Y005436D01*
X010139Y005393D01*
X010113Y005352D01*
X010083Y005314D01*
X010051Y005278D01*
X010016Y005245D01*
X009978Y005215D01*
X009938Y005188D01*
X009896Y005165D01*
X009852Y005145D01*
X009807Y005128D01*
X009761Y005116D01*
X009713Y005107D01*
X009665Y005102D01*
X009617Y005101D01*
X009569Y005104D01*
X009521Y005111D01*
X009474Y005122D01*
X009428Y005136D01*
X009383Y005154D01*
X009340Y005176D01*
X009299Y005201D01*
X009261Y005230D01*
X009224Y005262D01*
X009190Y005296D01*
X009160Y005333D01*
X009132Y005372D01*
X009107Y005414D01*
X009087Y005458D01*
X009069Y005503D01*
X009056Y005549D01*
X009046Y005596D01*
X009040Y005644D01*
X009038Y005692D01*
X020849Y005692D02*
X020851Y005740D01*
X020857Y005788D01*
X020867Y005835D01*
X020880Y005881D01*
X020898Y005926D01*
X020918Y005970D01*
X020943Y006012D01*
X020971Y006051D01*
X021001Y006088D01*
X021035Y006122D01*
X021072Y006154D01*
X021110Y006183D01*
X021151Y006208D01*
X021194Y006230D01*
X021239Y006248D01*
X021285Y006262D01*
X021332Y006273D01*
X021380Y006280D01*
X021428Y006283D01*
X021476Y006282D01*
X021524Y006277D01*
X021572Y006268D01*
X021618Y006256D01*
X021663Y006239D01*
X021707Y006219D01*
X021749Y006196D01*
X021789Y006169D01*
X021827Y006139D01*
X021862Y006106D01*
X021894Y006070D01*
X021924Y006032D01*
X021950Y005991D01*
X021972Y005948D01*
X021992Y005904D01*
X022007Y005859D01*
X022019Y005812D01*
X022027Y005764D01*
X022031Y005716D01*
X022031Y005668D01*
X022027Y005620D01*
X022019Y005572D01*
X022007Y005525D01*
X021992Y005480D01*
X021972Y005436D01*
X021950Y005393D01*
X021924Y005352D01*
X021894Y005314D01*
X021862Y005278D01*
X021827Y005245D01*
X021789Y005215D01*
X021749Y005188D01*
X021707Y005165D01*
X021663Y005145D01*
X021618Y005128D01*
X021572Y005116D01*
X021524Y005107D01*
X021476Y005102D01*
X021428Y005101D01*
X021380Y005104D01*
X021332Y005111D01*
X021285Y005122D01*
X021239Y005136D01*
X021194Y005154D01*
X021151Y005176D01*
X021110Y005201D01*
X021072Y005230D01*
X021035Y005262D01*
X021001Y005296D01*
X020971Y005333D01*
X020943Y005372D01*
X020918Y005414D01*
X020898Y005458D01*
X020880Y005503D01*
X020867Y005549D01*
X020857Y005596D01*
X020851Y005644D01*
X020849Y005692D01*
X028034Y008940D02*
X028036Y008992D01*
X028042Y009044D01*
X028052Y009095D01*
X028065Y009145D01*
X028083Y009195D01*
X028104Y009242D01*
X028128Y009288D01*
X028157Y009332D01*
X028188Y009374D01*
X028222Y009413D01*
X028259Y009450D01*
X028299Y009483D01*
X028342Y009514D01*
X028386Y009541D01*
X028432Y009565D01*
X028481Y009585D01*
X028530Y009601D01*
X028581Y009614D01*
X028632Y009623D01*
X028684Y009628D01*
X028736Y009629D01*
X028788Y009626D01*
X028840Y009619D01*
X028891Y009608D01*
X028941Y009594D01*
X028990Y009575D01*
X029037Y009553D01*
X029082Y009528D01*
X029126Y009499D01*
X029167Y009467D01*
X029206Y009432D01*
X029241Y009394D01*
X029274Y009353D01*
X029304Y009311D01*
X029330Y009266D01*
X029353Y009219D01*
X029372Y009170D01*
X029388Y009120D01*
X029400Y009070D01*
X029408Y009018D01*
X029412Y008966D01*
X029412Y008914D01*
X029408Y008862D01*
X029400Y008810D01*
X029388Y008760D01*
X029372Y008710D01*
X029353Y008661D01*
X029330Y008614D01*
X029304Y008569D01*
X029274Y008527D01*
X029241Y008486D01*
X029206Y008448D01*
X029167Y008413D01*
X029126Y008381D01*
X029082Y008352D01*
X029037Y008327D01*
X028990Y008305D01*
X028941Y008286D01*
X028891Y008272D01*
X028840Y008261D01*
X028788Y008254D01*
X028736Y008251D01*
X028684Y008252D01*
X028632Y008257D01*
X028581Y008266D01*
X028530Y008279D01*
X028481Y008295D01*
X028432Y008315D01*
X028386Y008339D01*
X028342Y008366D01*
X028299Y008397D01*
X028259Y008430D01*
X028222Y008467D01*
X028188Y008506D01*
X028157Y008548D01*
X028128Y008592D01*
X028104Y008638D01*
X028083Y008685D01*
X028065Y008735D01*
X028052Y008785D01*
X028042Y008836D01*
X028036Y008888D01*
X028034Y008940D01*
X020849Y017503D02*
X020851Y017551D01*
X020857Y017599D01*
X020867Y017646D01*
X020880Y017692D01*
X020898Y017737D01*
X020918Y017781D01*
X020943Y017823D01*
X020971Y017862D01*
X021001Y017899D01*
X021035Y017933D01*
X021072Y017965D01*
X021110Y017994D01*
X021151Y018019D01*
X021194Y018041D01*
X021239Y018059D01*
X021285Y018073D01*
X021332Y018084D01*
X021380Y018091D01*
X021428Y018094D01*
X021476Y018093D01*
X021524Y018088D01*
X021572Y018079D01*
X021618Y018067D01*
X021663Y018050D01*
X021707Y018030D01*
X021749Y018007D01*
X021789Y017980D01*
X021827Y017950D01*
X021862Y017917D01*
X021894Y017881D01*
X021924Y017843D01*
X021950Y017802D01*
X021972Y017759D01*
X021992Y017715D01*
X022007Y017670D01*
X022019Y017623D01*
X022027Y017575D01*
X022031Y017527D01*
X022031Y017479D01*
X022027Y017431D01*
X022019Y017383D01*
X022007Y017336D01*
X021992Y017291D01*
X021972Y017247D01*
X021950Y017204D01*
X021924Y017163D01*
X021894Y017125D01*
X021862Y017089D01*
X021827Y017056D01*
X021789Y017026D01*
X021749Y016999D01*
X021707Y016976D01*
X021663Y016956D01*
X021618Y016939D01*
X021572Y016927D01*
X021524Y016918D01*
X021476Y016913D01*
X021428Y016912D01*
X021380Y016915D01*
X021332Y016922D01*
X021285Y016933D01*
X021239Y016947D01*
X021194Y016965D01*
X021151Y016987D01*
X021110Y017012D01*
X021072Y017041D01*
X021035Y017073D01*
X021001Y017107D01*
X020971Y017144D01*
X020943Y017183D01*
X020918Y017225D01*
X020898Y017269D01*
X020880Y017314D01*
X020867Y017360D01*
X020857Y017407D01*
X020851Y017455D01*
X020849Y017503D01*
X023605Y020259D02*
X023607Y020307D01*
X023613Y020355D01*
X023623Y020402D01*
X023636Y020448D01*
X023654Y020493D01*
X023674Y020537D01*
X023699Y020579D01*
X023727Y020618D01*
X023757Y020655D01*
X023791Y020689D01*
X023828Y020721D01*
X023866Y020750D01*
X023907Y020775D01*
X023950Y020797D01*
X023995Y020815D01*
X024041Y020829D01*
X024088Y020840D01*
X024136Y020847D01*
X024184Y020850D01*
X024232Y020849D01*
X024280Y020844D01*
X024328Y020835D01*
X024374Y020823D01*
X024419Y020806D01*
X024463Y020786D01*
X024505Y020763D01*
X024545Y020736D01*
X024583Y020706D01*
X024618Y020673D01*
X024650Y020637D01*
X024680Y020599D01*
X024706Y020558D01*
X024728Y020515D01*
X024748Y020471D01*
X024763Y020426D01*
X024775Y020379D01*
X024783Y020331D01*
X024787Y020283D01*
X024787Y020235D01*
X024783Y020187D01*
X024775Y020139D01*
X024763Y020092D01*
X024748Y020047D01*
X024728Y020003D01*
X024706Y019960D01*
X024680Y019919D01*
X024650Y019881D01*
X024618Y019845D01*
X024583Y019812D01*
X024545Y019782D01*
X024505Y019755D01*
X024463Y019732D01*
X024419Y019712D01*
X024374Y019695D01*
X024328Y019683D01*
X024280Y019674D01*
X024232Y019669D01*
X024184Y019668D01*
X024136Y019671D01*
X024088Y019678D01*
X024041Y019689D01*
X023995Y019703D01*
X023950Y019721D01*
X023907Y019743D01*
X023866Y019768D01*
X023828Y019797D01*
X023791Y019829D01*
X023757Y019863D01*
X023727Y019900D01*
X023699Y019939D01*
X023674Y019981D01*
X023654Y020025D01*
X023636Y020070D01*
X023623Y020116D01*
X023613Y020163D01*
X023607Y020211D01*
X023605Y020259D01*
X009038Y017503D02*
X009040Y017551D01*
X009046Y017599D01*
X009056Y017646D01*
X009069Y017692D01*
X009087Y017737D01*
X009107Y017781D01*
X009132Y017823D01*
X009160Y017862D01*
X009190Y017899D01*
X009224Y017933D01*
X009261Y017965D01*
X009299Y017994D01*
X009340Y018019D01*
X009383Y018041D01*
X009428Y018059D01*
X009474Y018073D01*
X009521Y018084D01*
X009569Y018091D01*
X009617Y018094D01*
X009665Y018093D01*
X009713Y018088D01*
X009761Y018079D01*
X009807Y018067D01*
X009852Y018050D01*
X009896Y018030D01*
X009938Y018007D01*
X009978Y017980D01*
X010016Y017950D01*
X010051Y017917D01*
X010083Y017881D01*
X010113Y017843D01*
X010139Y017802D01*
X010161Y017759D01*
X010181Y017715D01*
X010196Y017670D01*
X010208Y017623D01*
X010216Y017575D01*
X010220Y017527D01*
X010220Y017479D01*
X010216Y017431D01*
X010208Y017383D01*
X010196Y017336D01*
X010181Y017291D01*
X010161Y017247D01*
X010139Y017204D01*
X010113Y017163D01*
X010083Y017125D01*
X010051Y017089D01*
X010016Y017056D01*
X009978Y017026D01*
X009938Y016999D01*
X009896Y016976D01*
X009852Y016956D01*
X009807Y016939D01*
X009761Y016927D01*
X009713Y016918D01*
X009665Y016913D01*
X009617Y016912D01*
X009569Y016915D01*
X009521Y016922D01*
X009474Y016933D01*
X009428Y016947D01*
X009383Y016965D01*
X009340Y016987D01*
X009299Y017012D01*
X009261Y017041D01*
X009224Y017073D01*
X009190Y017107D01*
X009160Y017144D01*
X009132Y017183D01*
X009107Y017225D01*
X009087Y017269D01*
X009069Y017314D01*
X009056Y017360D01*
X009046Y017407D01*
X009040Y017455D01*
X009038Y017503D01*
D11*
X015534Y006873D02*
X015534Y003723D01*
X014747Y004511D01*
X015534Y003723D02*
X016322Y004511D01*
D12*
X022424Y007857D02*
X022424Y015141D01*
X029904Y015141D01*
X029904Y007857D01*
X022424Y007857D01*
X007463Y012188D02*
X007463Y018487D01*
X001361Y018487D01*
X001361Y012188D01*
X007463Y012188D01*
D13*
X006929Y014186D02*
X006703Y014186D01*
X006929Y014186D02*
X007043Y014300D01*
X006929Y014413D01*
X006703Y014413D01*
X006759Y014555D02*
X006703Y014611D01*
X006703Y014725D01*
X006759Y014782D01*
X006759Y014923D02*
X006703Y014980D01*
X006703Y015093D01*
X006759Y015150D01*
X006759Y014923D02*
X006986Y014923D01*
X007043Y014980D01*
X007043Y015093D01*
X006986Y015150D01*
X006986Y014782D02*
X007043Y014725D01*
X007043Y014611D01*
X006986Y014555D01*
X006759Y014555D01*
X006059Y014555D02*
X005718Y014555D01*
X006059Y014782D01*
X005718Y014782D01*
X005718Y014923D02*
X005718Y015093D01*
X005775Y015150D01*
X006002Y015150D01*
X006059Y015093D01*
X006059Y014923D01*
X005718Y014923D01*
X005775Y014413D02*
X005718Y014357D01*
X005718Y014243D01*
X005775Y014186D01*
X006002Y014186D01*
X006059Y014243D01*
X006059Y014357D01*
X006002Y014413D01*
X005889Y014413D01*
X005889Y014300D01*
X005902Y016352D02*
X005795Y016458D01*
X005902Y016352D02*
X006115Y016352D01*
X006222Y016458D01*
X006222Y016672D01*
X006115Y016779D01*
X006008Y016779D01*
X005795Y016672D01*
X005795Y016992D01*
X006222Y016992D01*
X005577Y016886D02*
X005577Y016779D01*
X005471Y016672D01*
X005257Y016672D01*
X005150Y016779D01*
X005150Y016886D01*
X005257Y016992D01*
X005471Y016992D01*
X005577Y016886D01*
X005471Y016672D02*
X005577Y016565D01*
X005577Y016458D01*
X005471Y016352D01*
X005257Y016352D01*
X005150Y016458D01*
X005150Y016565D01*
X005257Y016672D01*
X004933Y016458D02*
X004826Y016352D01*
X004613Y016352D01*
X004506Y016458D01*
X004933Y016886D01*
X004933Y016458D01*
X004506Y016458D02*
X004506Y016886D01*
X004613Y016992D01*
X004826Y016992D01*
X004933Y016886D01*
X004288Y016886D02*
X004288Y016672D01*
X004182Y016565D01*
X003861Y016565D01*
X003861Y016352D02*
X003861Y016992D01*
X004182Y016992D01*
X004288Y016886D01*
X003644Y016992D02*
X003644Y016352D01*
X003217Y016352D02*
X003217Y016992D01*
X003430Y016779D01*
X003644Y016992D01*
X002999Y016886D02*
X002999Y016779D01*
X002892Y016672D01*
X002572Y016672D01*
X002572Y016352D02*
X002892Y016352D01*
X002999Y016458D01*
X002999Y016565D01*
X002892Y016672D01*
X002999Y016886D02*
X002892Y016992D01*
X002572Y016992D01*
X002572Y016352D01*
X002122Y015150D02*
X001895Y015150D01*
X001781Y015036D01*
X001895Y014923D01*
X002122Y014923D01*
X002065Y014782D02*
X001838Y014782D01*
X001781Y014725D01*
X001781Y014555D01*
X002122Y014555D01*
X002122Y014725D01*
X002065Y014782D01*
X001952Y014923D02*
X001952Y015150D01*
X002008Y014413D02*
X002065Y014413D01*
X002122Y014357D01*
X002122Y014243D01*
X002065Y014186D01*
X001952Y014243D02*
X001952Y014357D01*
X002008Y014413D01*
X001838Y014413D02*
X001781Y014357D01*
X001781Y014243D01*
X001838Y014186D01*
X001895Y014186D01*
X001952Y014243D01*
X002766Y014243D02*
X002822Y014186D01*
X002879Y014186D01*
X002936Y014243D01*
X002936Y014357D01*
X002992Y014413D01*
X003049Y014413D01*
X003106Y014357D01*
X003106Y014243D01*
X003049Y014186D01*
X002766Y014243D02*
X002766Y014357D01*
X002822Y014413D01*
X002822Y014555D02*
X003049Y014555D01*
X003106Y014611D01*
X003106Y014725D01*
X003049Y014782D01*
X003106Y014923D02*
X002766Y014923D01*
X002822Y014782D02*
X002766Y014725D01*
X002766Y014611D01*
X002822Y014555D01*
X003106Y014923D02*
X003106Y015150D01*
X004991Y010114D02*
X004934Y010057D01*
X004934Y009830D01*
X004991Y009774D01*
X005105Y009774D01*
X005161Y009830D01*
X005161Y009944D01*
X005048Y009944D01*
X005161Y010057D02*
X005105Y010114D01*
X004991Y010114D01*
X005303Y010114D02*
X005303Y009774D01*
X005530Y009774D02*
X005303Y010114D01*
X005530Y010114D02*
X005530Y009774D01*
X005671Y009774D02*
X005841Y009774D01*
X005898Y009830D01*
X005898Y010057D01*
X005841Y010114D01*
X005671Y010114D01*
X005671Y009774D01*
X005671Y009130D02*
X005671Y008790D01*
X005898Y008790D01*
X005530Y008846D02*
X005473Y008790D01*
X005359Y008790D01*
X005303Y008846D01*
X005303Y009073D01*
X005359Y009130D01*
X005473Y009130D01*
X005530Y009073D01*
X005161Y009073D02*
X005105Y009130D01*
X004991Y009130D01*
X004934Y009073D01*
X004934Y009016D01*
X004991Y008960D01*
X005105Y008960D01*
X005161Y008903D01*
X005161Y008846D01*
X005105Y008790D01*
X004991Y008790D01*
X004934Y008846D01*
X004991Y008106D02*
X004934Y008049D01*
X004934Y007993D01*
X004991Y007936D01*
X005105Y007936D01*
X005161Y007879D01*
X005161Y007823D01*
X005105Y007766D01*
X004991Y007766D01*
X004934Y007823D01*
X004991Y008106D02*
X005105Y008106D01*
X005161Y008049D01*
X005303Y008106D02*
X005303Y007766D01*
X005473Y007766D01*
X005530Y007823D01*
X005530Y008049D01*
X005473Y008106D01*
X005303Y008106D01*
X005671Y007993D02*
X005671Y007766D01*
X005671Y007936D02*
X005898Y007936D01*
X005898Y007993D02*
X005898Y007766D01*
X005898Y007993D02*
X005784Y008106D01*
X005671Y007993D01*
X005728Y007043D02*
X005671Y006986D01*
X005671Y006760D01*
X005728Y006703D01*
X005841Y006703D01*
X005898Y006760D01*
X005898Y006986D02*
X005841Y007043D01*
X005728Y007043D01*
X005530Y006986D02*
X005473Y007043D01*
X005359Y007043D01*
X005303Y006986D01*
X005303Y006760D01*
X005359Y006703D01*
X005473Y006703D01*
X005530Y006760D01*
X005161Y006816D02*
X005048Y006703D01*
X004934Y006816D01*
X004934Y007043D01*
X005161Y007043D02*
X005161Y006816D01*
X013596Y011824D02*
X013596Y012465D01*
X014023Y011824D01*
X014023Y012465D01*
X014347Y012251D02*
X014561Y012251D01*
X014667Y012144D01*
X014667Y011824D01*
X014347Y011824D01*
X014240Y011931D01*
X014347Y012038D01*
X014667Y012038D01*
X014885Y012251D02*
X014885Y011824D01*
X015312Y011824D02*
X015312Y012144D01*
X015205Y012251D01*
X014885Y012251D01*
X015529Y012144D02*
X015529Y011931D01*
X015636Y011824D01*
X015850Y011824D01*
X015957Y011931D01*
X015957Y012144D01*
X015850Y012251D01*
X015636Y012251D01*
X015529Y012144D01*
X016174Y011824D02*
X016388Y012038D01*
X016601Y011824D01*
X016601Y012465D01*
X016819Y012251D02*
X016925Y012251D01*
X016925Y011824D01*
X016819Y011824D02*
X017032Y011824D01*
X017248Y011824D02*
X017462Y011824D01*
X017355Y011824D02*
X017355Y012251D01*
X017248Y012251D01*
X017355Y012465D02*
X017355Y012571D01*
X016925Y012571D02*
X016925Y012465D01*
X016174Y012465D02*
X016174Y011824D01*
X024029Y011878D02*
X024086Y011821D01*
X024199Y011821D01*
X024256Y011878D01*
X024256Y011934D01*
X024199Y011991D01*
X024086Y011991D01*
X024029Y012048D01*
X024029Y012105D01*
X024086Y012161D01*
X024199Y012161D01*
X024256Y012105D01*
X024397Y012161D02*
X024567Y012161D01*
X024624Y012105D01*
X024624Y011878D01*
X024567Y011821D01*
X024397Y011821D01*
X024397Y012161D01*
X024766Y012048D02*
X024879Y012161D01*
X024992Y012048D01*
X024992Y011821D01*
X024992Y011991D02*
X024766Y011991D01*
X024766Y012048D02*
X024766Y011821D01*
X024822Y011177D02*
X024766Y011120D01*
X024766Y010893D01*
X024822Y010837D01*
X024936Y010837D01*
X024992Y010893D01*
X024992Y011120D02*
X024936Y011177D01*
X024822Y011177D01*
X024624Y011120D02*
X024567Y011177D01*
X024454Y011177D01*
X024397Y011120D01*
X024397Y010893D01*
X024454Y010837D01*
X024567Y010837D01*
X024624Y010893D01*
X024256Y010950D02*
X024256Y011177D01*
X024256Y010950D02*
X024142Y010837D01*
X024029Y010950D01*
X024029Y011177D01*
X024086Y010193D02*
X024029Y010136D01*
X024029Y009909D01*
X024086Y009853D01*
X024199Y009853D01*
X024256Y009909D01*
X024256Y010023D01*
X024142Y010023D01*
X024256Y010136D02*
X024199Y010193D01*
X024086Y010193D01*
X024397Y010193D02*
X024397Y009853D01*
X024624Y009853D02*
X024397Y010193D01*
X024624Y010193D02*
X024624Y009853D01*
X024766Y009853D02*
X024936Y009853D01*
X024992Y009909D01*
X024992Y010136D01*
X024936Y010193D01*
X024766Y010193D01*
X024766Y009853D01*
X025887Y009910D02*
X026101Y010123D01*
X025887Y010337D01*
X026528Y010337D01*
X026421Y010554D02*
X026528Y010661D01*
X026528Y010874D01*
X026421Y010981D01*
X026421Y011199D02*
X026528Y011306D01*
X026528Y011519D01*
X026421Y011626D01*
X026208Y011626D01*
X026101Y011519D01*
X026101Y011412D01*
X026208Y011199D01*
X025887Y011199D01*
X025887Y011626D01*
X025994Y011843D02*
X026101Y011843D01*
X026208Y011950D01*
X026208Y012164D01*
X026314Y012270D01*
X026421Y012270D01*
X026528Y012164D01*
X026528Y011950D01*
X026421Y011843D01*
X026314Y011843D01*
X026208Y011950D01*
X026208Y012164D02*
X026101Y012270D01*
X025994Y012270D01*
X025887Y012164D01*
X025887Y011950D01*
X025994Y011843D01*
X025994Y012488D02*
X026101Y012488D01*
X026208Y012595D01*
X026208Y012808D01*
X026314Y012915D01*
X026421Y012915D01*
X026528Y012808D01*
X026528Y012595D01*
X026421Y012488D01*
X026314Y012488D01*
X026208Y012595D01*
X026208Y012808D02*
X026101Y012915D01*
X025994Y012915D01*
X025887Y012808D01*
X025887Y012595D01*
X025994Y012488D01*
X025994Y013132D02*
X025887Y013239D01*
X025887Y013453D01*
X025994Y013559D01*
X026101Y013559D01*
X026208Y013453D01*
X026314Y013559D01*
X026421Y013559D01*
X026528Y013453D01*
X026528Y013239D01*
X026421Y013132D01*
X026208Y013346D02*
X026208Y013453D01*
X024992Y012805D02*
X024766Y012805D01*
X024766Y013146D01*
X024624Y013089D02*
X024567Y013146D01*
X024454Y013146D01*
X024397Y013089D01*
X024397Y012862D01*
X024454Y012805D01*
X024567Y012805D01*
X024624Y012862D01*
X024256Y012862D02*
X024199Y012805D01*
X024086Y012805D01*
X024029Y012862D01*
X024086Y012975D02*
X024199Y012975D01*
X024256Y012919D01*
X024256Y012862D01*
X024086Y012975D02*
X024029Y013032D01*
X024029Y013089D01*
X024086Y013146D01*
X024199Y013146D01*
X024256Y013089D01*
X025994Y010981D02*
X025887Y010874D01*
X025887Y010661D01*
X025994Y010554D01*
X026421Y010554D01*
X026528Y009910D02*
X025887Y009910D01*
X025887Y009692D02*
X026528Y009692D01*
X026208Y009692D02*
X026208Y009265D01*
X026528Y009265D02*
X025887Y009265D01*
X017166Y021076D02*
X017279Y021190D01*
X017166Y021303D01*
X016939Y021303D01*
X016996Y021444D02*
X017222Y021444D01*
X017279Y021501D01*
X017279Y021615D01*
X017222Y021671D01*
X017222Y021813D02*
X016996Y021813D01*
X016939Y021869D01*
X016939Y021983D01*
X016996Y022040D01*
X017222Y022040D02*
X017279Y021983D01*
X017279Y021869D01*
X017222Y021813D01*
X016996Y021671D02*
X016939Y021615D01*
X016939Y021501D01*
X016996Y021444D01*
X016939Y021076D02*
X017166Y021076D01*
X016295Y021133D02*
X016238Y021076D01*
X016295Y021133D02*
X016295Y021246D01*
X016238Y021303D01*
X016181Y021303D01*
X016125Y021246D01*
X016125Y021133D01*
X016068Y021076D01*
X016011Y021076D01*
X015955Y021133D01*
X015955Y021246D01*
X016011Y021303D01*
X015955Y021444D02*
X015955Y021615D01*
X016011Y021671D01*
X016238Y021671D01*
X016295Y021615D01*
X016295Y021444D01*
X015955Y021444D01*
X016068Y021813D02*
X015955Y021926D01*
X016068Y022040D01*
X016295Y022040D01*
X016125Y022040D02*
X016125Y021813D01*
X016068Y021813D02*
X016295Y021813D01*
X014917Y021813D02*
X014917Y022040D01*
X014917Y021813D02*
X014577Y021813D01*
X014633Y021671D02*
X014577Y021615D01*
X014577Y021501D01*
X014633Y021444D01*
X014860Y021444D01*
X014917Y021501D01*
X014917Y021615D01*
X014860Y021671D01*
X014860Y021303D02*
X014917Y021246D01*
X014917Y021133D01*
X014860Y021076D01*
X014747Y021133D02*
X014747Y021246D01*
X014803Y021303D01*
X014860Y021303D01*
X014747Y021133D02*
X014690Y021076D01*
X014633Y021076D01*
X014577Y021133D01*
X014577Y021246D01*
X014633Y021303D01*
X014130Y021246D02*
X014073Y021303D01*
X013959Y021303D01*
X013959Y021190D01*
X013846Y021303D02*
X013789Y021246D01*
X013789Y021133D01*
X013846Y021076D01*
X014073Y021076D01*
X014130Y021133D01*
X014130Y021246D01*
X014130Y021444D02*
X013789Y021444D01*
X014130Y021671D01*
X013789Y021671D01*
X013789Y021813D02*
X013789Y021983D01*
X013846Y022040D01*
X014073Y022040D01*
X014130Y021983D01*
X014130Y021813D01*
X013789Y021813D01*
D14*
X014492Y001795D02*
X014492Y001715D01*
X014492Y001555D02*
X014412Y001555D01*
X014492Y001555D02*
X014492Y001235D01*
X014412Y001235D02*
X014572Y001235D01*
X014836Y001315D02*
X014916Y001235D01*
X014836Y001315D02*
X014836Y001635D01*
X014756Y001555D02*
X014916Y001555D01*
X015099Y001315D02*
X015179Y001315D01*
X015179Y001235D01*
X015099Y001235D01*
X015099Y001315D01*
X015357Y001315D02*
X015357Y001475D01*
X015437Y001555D01*
X015677Y001555D01*
X015677Y001715D02*
X015677Y001235D01*
X015437Y001235D01*
X015357Y001315D01*
X015873Y001315D02*
X015873Y001475D01*
X015953Y001555D01*
X016113Y001555D01*
X016193Y001475D01*
X016193Y001395D01*
X015873Y001395D01*
X015873Y001315D02*
X015953Y001235D01*
X016113Y001235D01*
X016388Y001235D02*
X016709Y001715D01*
X016904Y001555D02*
X017144Y001555D01*
X017224Y001475D01*
X017224Y001315D01*
X017144Y001235D01*
X016904Y001235D01*
X016904Y001075D02*
X016904Y001555D01*
X017420Y001555D02*
X017420Y001235D01*
X017420Y001395D02*
X017580Y001555D01*
X017660Y001555D01*
X017849Y001475D02*
X017849Y001315D01*
X017929Y001235D01*
X018090Y001235D01*
X018170Y001315D01*
X018170Y001475D01*
X018090Y001555D01*
X017929Y001555D01*
X017849Y001475D01*
X018365Y001075D02*
X018445Y001075D01*
X018525Y001155D01*
X018525Y001555D01*
X018525Y001715D02*
X018525Y001795D01*
X018789Y001555D02*
X018709Y001475D01*
X018709Y001315D01*
X018789Y001235D01*
X018949Y001235D01*
X019029Y001395D02*
X018709Y001395D01*
X018789Y001555D02*
X018949Y001555D01*
X019029Y001475D01*
X019029Y001395D01*
X019224Y001475D02*
X019224Y001315D01*
X019304Y001235D01*
X019545Y001235D01*
X019820Y001315D02*
X019900Y001235D01*
X019820Y001315D02*
X019820Y001635D01*
X019740Y001555D02*
X019900Y001555D01*
X020084Y001475D02*
X020164Y001555D01*
X020404Y001555D01*
X020324Y001395D02*
X020164Y001395D01*
X020084Y001475D01*
X020084Y001235D02*
X020324Y001235D01*
X020404Y001315D01*
X020324Y001395D01*
X020599Y001235D02*
X020920Y001715D01*
X021115Y001475D02*
X021115Y001315D01*
X021195Y001235D01*
X021435Y001235D01*
X021435Y001075D02*
X021435Y001555D01*
X021195Y001555D01*
X021115Y001475D01*
X021631Y001555D02*
X021631Y001315D01*
X021711Y001235D01*
X021951Y001235D01*
X021951Y001555D01*
X022226Y001555D02*
X022387Y001555D01*
X022467Y001475D01*
X022467Y001235D01*
X022226Y001235D01*
X022146Y001315D01*
X022226Y001395D01*
X022467Y001395D01*
X022662Y001475D02*
X022742Y001555D01*
X022982Y001555D01*
X022982Y001715D02*
X022982Y001235D01*
X022742Y001235D01*
X022662Y001315D01*
X022662Y001475D01*
X023178Y001475D02*
X023178Y001315D01*
X023258Y001235D01*
X023498Y001235D01*
X023693Y001315D02*
X023693Y001475D01*
X023773Y001555D01*
X023933Y001555D01*
X024014Y001475D01*
X024014Y001315D01*
X023933Y001235D01*
X023773Y001235D01*
X023693Y001315D01*
X023498Y001555D02*
X023258Y001555D01*
X023178Y001475D01*
X024209Y001555D02*
X024209Y001075D01*
X024209Y001235D02*
X024449Y001235D01*
X024529Y001315D01*
X024529Y001475D01*
X024449Y001555D01*
X024209Y001555D01*
X024725Y001555D02*
X024885Y001555D01*
X024805Y001635D02*
X024805Y001315D01*
X024885Y001235D01*
X025068Y001315D02*
X025068Y001475D01*
X025148Y001555D01*
X025309Y001555D01*
X025389Y001475D01*
X025389Y001395D01*
X025068Y001395D01*
X025068Y001315D02*
X025148Y001235D01*
X025309Y001235D01*
X025584Y001235D02*
X025584Y001555D01*
X025584Y001395D02*
X025744Y001555D01*
X025824Y001555D01*
X019545Y001555D02*
X019304Y001555D01*
X019224Y001475D01*
X014216Y001475D02*
X014216Y001395D01*
X013896Y001395D01*
X013896Y001475D02*
X013976Y001555D01*
X014136Y001555D01*
X014216Y001475D01*
X014136Y001235D02*
X013976Y001235D01*
X013896Y001315D01*
X013896Y001475D01*
X013707Y001555D02*
X013466Y001395D01*
X013707Y001235D01*
X013466Y001235D02*
X013466Y001715D01*
X013271Y001475D02*
X013191Y001555D01*
X013031Y001555D01*
X013031Y001395D02*
X013271Y001395D01*
X013271Y001475D02*
X013271Y001235D01*
X013031Y001235D01*
X012951Y001315D01*
X013031Y001395D01*
X012755Y001475D02*
X012755Y001235D01*
X012595Y001235D02*
X012595Y001475D01*
X012675Y001555D01*
X012755Y001475D01*
X012595Y001475D02*
X012515Y001555D01*
X012435Y001555D01*
X012435Y001235D01*
X012240Y001235D02*
X012240Y001475D01*
X012160Y001555D01*
X011919Y001555D01*
X011919Y001235D01*
X011724Y001235D02*
X011484Y001235D01*
X011404Y001315D01*
X011484Y001395D01*
X011724Y001395D01*
X011724Y001475D02*
X011724Y001235D01*
X011724Y001475D02*
X011644Y001555D01*
X011484Y001555D01*
X011208Y001555D02*
X010968Y001555D01*
X010888Y001475D01*
X010888Y001315D01*
X010968Y001235D01*
X011208Y001235D01*
X010705Y001235D02*
X010544Y001235D01*
X010625Y001235D02*
X010625Y001555D01*
X010544Y001555D01*
X010625Y001715D02*
X010625Y001795D01*
X010367Y001315D02*
X010367Y001235D01*
X010287Y001235D01*
X010287Y001315D01*
X010367Y001315D01*
X010091Y001315D02*
X010091Y001555D01*
X010091Y001315D02*
X010011Y001235D01*
X009931Y001315D01*
X009851Y001235D01*
X009771Y001315D01*
X009771Y001555D01*
X009576Y001555D02*
X009576Y001315D01*
X009496Y001235D01*
X009415Y001315D01*
X009335Y001235D01*
X009255Y001315D01*
X009255Y001555D01*
X009060Y001555D02*
X009060Y001315D01*
X008980Y001235D01*
X008900Y001315D01*
X008820Y001235D01*
X008740Y001315D01*
X008740Y001555D01*
X008544Y001715D02*
X008224Y001235D01*
X007708Y001235D02*
X008029Y001715D01*
X007531Y001555D02*
X007531Y001475D01*
X007451Y001475D01*
X007451Y001555D01*
X007531Y001555D01*
X007531Y001315D02*
X007531Y001235D01*
X007451Y001235D01*
X007451Y001315D01*
X007531Y001315D01*
X007255Y001315D02*
X007255Y001475D01*
X007175Y001555D01*
X006935Y001555D01*
X006935Y001075D01*
X006935Y001235D02*
X007175Y001235D01*
X007255Y001315D01*
X006751Y001235D02*
X006671Y001315D01*
X006671Y001635D01*
X006591Y001555D02*
X006751Y001555D01*
X006408Y001555D02*
X006247Y001555D01*
X006328Y001635D02*
X006328Y001315D01*
X006408Y001235D01*
X006052Y001235D02*
X006052Y001475D01*
X005972Y001555D01*
X005812Y001555D01*
X005732Y001475D01*
X005732Y001715D02*
X005732Y001235D01*
D15*
X003347Y006738D02*
X003347Y007044D01*
X003347Y006891D02*
X002887Y006891D01*
X003040Y006738D01*
X006678Y011718D02*
X006985Y011718D01*
X006832Y011718D02*
X006832Y012178D01*
X006678Y012025D01*
X012373Y018635D02*
X012527Y018635D01*
X012450Y018635D02*
X012450Y019095D01*
X012373Y019095D02*
X012527Y019095D01*
X012680Y019019D02*
X012757Y019095D01*
X012910Y019095D01*
X012987Y019019D01*
X012987Y018942D01*
X012680Y018635D01*
X012987Y018635D01*
X013141Y018712D02*
X013217Y018635D01*
X013371Y018635D01*
X013447Y018712D01*
X013601Y018558D02*
X013908Y018558D01*
X014061Y018635D02*
X014368Y018635D01*
X014522Y018635D02*
X014829Y019095D01*
X014982Y019095D02*
X015289Y019095D01*
X015136Y019095D02*
X015136Y018635D01*
X015443Y018635D02*
X015749Y018635D01*
X015903Y018635D02*
X015903Y019095D01*
X016210Y018635D01*
X016210Y019095D01*
X016363Y019019D02*
X016363Y018942D01*
X016440Y018865D01*
X016593Y018865D01*
X016670Y018789D01*
X016670Y018712D01*
X016593Y018635D01*
X016440Y018635D01*
X016363Y018712D01*
X016363Y019019D02*
X016440Y019095D01*
X016593Y019095D01*
X016670Y019019D01*
X016824Y019029D02*
X017131Y019029D01*
X017131Y019019D02*
X017131Y018712D01*
X017207Y018635D01*
X017361Y018635D01*
X017438Y018712D01*
X017438Y019019D01*
X017361Y019095D01*
X017207Y019095D01*
X017131Y019019D01*
X016978Y019029D02*
X016978Y019489D01*
X016824Y019336D01*
X016824Y019095D02*
X016977Y019095D01*
X016900Y019095D02*
X016900Y018635D01*
X016824Y018635D02*
X016977Y018635D01*
X017591Y018635D02*
X017591Y019095D01*
X017898Y018635D01*
X017898Y019095D01*
X018051Y018558D02*
X018358Y018558D01*
X018512Y018712D02*
X018512Y019019D01*
X018589Y019095D01*
X018742Y019095D01*
X018819Y019019D01*
X018972Y019019D02*
X018972Y018712D01*
X019049Y018635D01*
X019202Y018635D01*
X019279Y018712D01*
X019279Y019019D01*
X019202Y019095D01*
X019049Y019095D01*
X018972Y019019D01*
X018819Y018712D02*
X018742Y018635D01*
X018589Y018635D01*
X018512Y018712D01*
X019433Y018635D02*
X019433Y019095D01*
X019740Y018635D01*
X019740Y019095D01*
X015749Y019095D02*
X015443Y019095D01*
X015443Y018635D01*
X015443Y018865D02*
X015596Y018865D01*
X014829Y018635D02*
X014522Y019095D01*
X014368Y019095D02*
X014061Y019095D01*
X014061Y018635D01*
X014061Y018865D02*
X014215Y018865D01*
X013447Y019019D02*
X013371Y019095D01*
X013217Y019095D01*
X013141Y019019D01*
X013141Y018712D01*
X022441Y010096D02*
X022441Y009789D01*
X022441Y009942D02*
X021981Y009942D01*
X022135Y009789D01*
D16*
X022811Y009599D02*
X022911Y009499D01*
X023511Y009499D01*
X023611Y009599D01*
X023611Y010399D02*
X023511Y010499D01*
X023611Y010599D01*
X022911Y010499D02*
X022811Y010399D01*
X022911Y010499D02*
X022811Y010599D01*
X022811Y011399D02*
X022911Y011499D01*
X022811Y011599D01*
X023511Y011499D02*
X023611Y011399D01*
X023511Y011499D02*
X023611Y011599D01*
X023611Y012399D02*
X023511Y012499D01*
X023611Y012599D01*
X022911Y012499D02*
X022811Y012399D01*
X022911Y012499D02*
X022811Y012599D01*
X022811Y013399D02*
X022911Y013499D01*
X023511Y013499D01*
X023611Y013399D01*
X017434Y019859D02*
X017534Y019959D01*
X017534Y020559D01*
X017434Y020659D01*
X016634Y020659D02*
X016534Y020559D01*
X016434Y020659D01*
X016534Y019959D02*
X016634Y019859D01*
X016534Y019959D02*
X016434Y019859D01*
X015634Y019859D02*
X015534Y019959D01*
X015434Y019859D01*
X015534Y020559D02*
X015634Y020659D01*
X015534Y020559D02*
X015434Y020659D01*
X014634Y020659D02*
X014534Y020559D01*
X014434Y020659D01*
X014534Y019959D02*
X014634Y019859D01*
X014534Y019959D02*
X014434Y019859D01*
X013634Y019859D02*
X013534Y019959D01*
X013534Y020559D01*
X013634Y020659D01*
X007289Y013348D02*
X007389Y013248D01*
X007389Y012648D01*
X007289Y012548D01*
X006489Y012548D02*
X006389Y012648D01*
X006289Y012548D01*
X006389Y013248D02*
X006489Y013348D01*
X006389Y013248D02*
X006289Y013348D01*
X005489Y013348D02*
X005389Y013248D01*
X005289Y013348D01*
X005389Y012648D02*
X005489Y012548D01*
X005389Y012648D02*
X005289Y012548D01*
X004489Y012548D02*
X004389Y012648D01*
X004289Y012548D01*
X003489Y012548D02*
X003389Y012648D01*
X003289Y012548D01*
X002489Y012548D02*
X002389Y012648D01*
X002289Y012548D01*
X002389Y013248D02*
X002489Y013348D01*
X002389Y013248D02*
X002289Y013348D01*
X001489Y013348D02*
X001389Y013248D01*
X001389Y012648D01*
X001489Y012548D01*
X003289Y013348D02*
X003389Y013248D01*
X003489Y013348D01*
X004289Y013348D02*
X004389Y013248D01*
X004489Y013348D01*
X004417Y010448D02*
X003817Y010448D01*
X003717Y010348D01*
X004417Y010448D02*
X004517Y010348D01*
X004517Y009548D02*
X004417Y009448D01*
X004517Y009348D01*
X003817Y009448D02*
X003717Y009348D01*
X003817Y009448D02*
X003717Y009548D01*
X003717Y008548D02*
X003817Y008448D01*
X003717Y008348D01*
X004417Y008448D02*
X004517Y008348D01*
X004417Y008448D02*
X004517Y008548D01*
X004517Y007548D02*
X004417Y007448D01*
X004517Y007348D01*
X003817Y007448D02*
X003717Y007348D01*
X003817Y007448D02*
X003717Y007548D01*
X003717Y006548D02*
X003817Y006448D01*
X004417Y006448D01*
X004517Y006548D01*
M02*
